<svg xmlns="http://www.w3.org/2000/svg" version="1.1" xmlns:xlink="http://www.w3.org/1999/xlink" xmlns:svgjs="http://svgjs.dev/svgjs" width="1000" height="1000" viewBox="0 0 1000 1000"><rect width="1000" height="1000" fill="#046380"></rect><g transform="matrix(0.7,0,0,0.7,149.57576729738855,456.1767513479881)"><svg viewBox="0 0 396 50" data-background-color="#046380" preserveAspectRatio="xMidYMid meet" height="126" width="1000" xmlns="http://www.w3.org/2000/svg" xmlns:xlink="http://www.w3.org/1999/xlink"><g id="tight-bounds" transform="matrix(1,0,0,1,0.23999583766664045,-0.15688851926765324)"><svg viewBox="0 0 395.52 50.3137733608719" height="50.3137733608719" width="395.52"><g><svg viewBox="0 0 490.1641086245692 62.35337244885309" height="50.3137733608719" width="395.52"><g transform="matrix(1,0,0,1,94.64410862456924,1.0978765530068273)"><svg viewBox="0 0 395.52 60.15761934283943" height="60.15761934283943" width="395.52"><g id="textblocktransform"><svg viewBox="0 0 395.52 60.15761934283943" height="60.15761934283943" width="395.52" id="textblock"><g><svg viewBox="0 0 395.52 60.15761934283943" height="60.15761934283943" width="395.52"><g transform="matrix(1,0,0,1,0,0)"><svg width="395.52" viewBox="0.75 -35.79999923706055 241.92999267578125 36.79999923706055" height="60.15761934283943" data-palette-color="#ffffff"><g class="wordmark-text-0" data-fill-palette-color="primary" id="text-0"><path d="M36.3-34.8L38.8 0 28.65 0 28.4-12.35Q28.35-13.8 28.35-16.7L28.35-16.7Q28.35-21.8 28.75-26.55L28.75-26.55 24.65-3.5 14.9-3.5 10.5-26.55Q11.15-19.6 11.15-14.65L11.15-14.65 11.15-12.4 10.9 0 0.75 0 3.25-34.8 15.95-34.8 19.95-12.25 23.55-34.8 36.3-34.8ZM56.8-35.8Q64.6-35.8 68.82-30.98 73.05-26.15 73.05-17.45L73.05-17.45Q73.05-11.8 71.15-7.65 69.25-3.5 65.6-1.25 61.95 1 56.8 1L56.8 1Q49 1 44.77-3.88 40.55-8.75 40.55-17.45L40.55-17.45Q40.55-23.1 42.45-27.23 44.35-31.35 48-33.58 51.65-35.8 56.8-35.8L56.8-35.8ZM56.8-28.5Q53.85-28.5 52.55-25.98 51.25-23.45 51.25-17.45L51.25-17.45Q51.25-11.45 52.55-8.88 53.85-6.3 56.8-6.3L56.8-6.3Q59.8-6.3 61.07-8.85 62.35-11.4 62.35-17.45L62.35-17.45Q62.35-23.45 61.05-25.98 59.75-28.5 56.8-28.5L56.8-28.5ZM91.3-35.8Q99.1-35.8 103.32-30.98 107.55-26.15 107.55-17.45L107.55-17.45Q107.55-11.8 105.65-7.65 103.75-3.5 100.1-1.25 96.45 1 91.3 1L91.3 1Q83.5 1 79.27-3.88 75.05-8.75 75.05-17.45L75.05-17.45Q75.05-23.1 76.95-27.23 78.85-31.35 82.5-33.58 86.15-35.8 91.3-35.8L91.3-35.8ZM91.3-28.5Q88.35-28.5 87.05-25.98 85.75-23.45 85.75-17.45L85.75-17.45Q85.75-11.45 87.05-8.88 88.35-6.3 91.3-6.3L91.3-6.3Q94.3-6.3 95.57-8.85 96.85-11.4 96.85-17.45L96.85-17.45Q96.85-23.45 95.55-25.98 94.25-28.5 91.3-28.5L91.3-28.5ZM121.84-34.8Q130.24-34.8 135.29-31.08 140.34-27.35 140.34-17.55L140.34-17.55Q140.34-7.9 135.49-3.95 130.64 0 122.44 0L122.44 0 110.69 0 110.69-34.8 121.84-34.8ZM123.09-27.55L120.99-27.55 120.99-7.25 123.04-7.25Q125.44-7.25 126.89-8.2 128.34-9.15 129.04-11.38 129.74-13.6 129.74-17.55L129.74-17.55Q129.74-21.45 129.02-23.63 128.29-25.8 126.84-26.68 125.39-27.55 123.09-27.55L123.09-27.55ZM153.79 0L143.49 0 143.49-34.8 165.59-34.8 164.54-27.65 153.79-27.65 153.79-20.05 163.24-20.05 163.24-12.9 153.79-12.9 153.79 0ZM167.74-34.8L178.04-34.8 178.04 0 167.74 0 167.74-34.8ZM210.29-34.8L201.29-18.75 210.99 0 199.89 0 195.09-11.95 190.59 0 179.69 0 188.99-18.45 180.34-34.8 191.39-34.8 195.19-24.8 199.44-34.8 210.29-34.8ZM231.28 0L224.83-12.4 222.93-12.4 222.93 0 212.63 0 212.63-34.8 225.38-34.8Q232.93-34.8 236.63-32.13 240.33-29.45 240.33-23.75L240.33-23.75Q240.33-20.5 238.88-18.35 237.43-16.2 234.18-14.3L234.18-14.3 242.68 0 231.28 0ZM222.93-27.75L222.93-19.3 225.63-19.3Q227.73-19.3 228.78-20.4 229.83-21.5 229.83-23.75L229.83-23.75Q229.83-27.75 225.13-27.75L225.13-27.75 222.93-27.75Z" fill="#ffffff" data-fill-palette-color="primary"></path></g></svg></g></svg></g></svg></g></svg></g><g><svg viewBox="0 0 80.44233848058909 62.35337244885309" height="62.35337244885309" width="80.44233848058909"><g><svg xmlns="http://www.w3.org/2000/svg" xmlns:xlink="http://www.w3.org/1999/xlink" version="1.1" x="0" y="0" viewBox="4.823001861572266 14.980999946594238 90.35501098632812 70.03699493408203" enable-background="new 0 0 100 100" xml:space="preserve" height="62.35337244885309" width="80.44233848058909" class="icon-icon-0" data-fill-palette-color="accent" id="icon-0"><path fill="#ffffff" d="M71.611 14.981c-9.679 0-17.985 5.842-21.614 14.185-3.628-8.343-11.922-14.185-21.601-14.185-13.023 0-23.573 10.553-23.573 23.57 0 7.755 3.807 14.581 9.58 18.876l35.594 27.591 35.601-27.591c5.78-4.295 9.58-11.121 9.58-18.876C95.178 25.535 84.621 14.981 71.611 14.981zM72.329 53.09H59.881l-3.455-9.343L48.84 67.1l-7.623-17.074-0.762 2.175H27.673v-3.558h10.258l2.886-8.241 7.499 16.795 7.892-24.296 6.152 16.631h9.97V53.09z" data-fill-palette-color="accent"></path></svg></g></svg></g></svg></g><defs></defs></svg><rect width="395.52" height="50.3137733608719" fill="none" stroke="none" visibility="hidden"></rect></g></svg></g></svg>